<svg xmlns="http://www.w3.org/2000/svg" xmlns:xlink="http://www.w3.org/1999/xlink" contentStyleType="text/css" data-diagram-type="ACTIVITY" height="463px" preserveAspectRatio="none" style="width:637px;height:463px;background:#DDDDDD;" version="1.1" viewBox="0 0 637 463" width="637px" zoomAndPan="magnify"><defs/><g><rect fill="#DDDDDD" height="463" style="stroke:none;stroke-width:1;" width="637" x="0" y="0"/><ellipse cx="459.0298" cy="20" fill="#222222" rx="10" ry="10" style="stroke:#222222;stroke-width:1;"/><rect fill="#F1F1F1" height="33.9688" rx="3.5" ry="3.5" style="stroke:#181818;stroke-width:0.5;" width="241.1328" x="338.4634" y="50"/><text fill="#000000" font-family="sans-serif" font-size="12" lengthAdjust="spacing" textLength="221.1328" x="348.4634" y="71.1387">Identify change request components</text><rect fill="#F1F1F1" height="33.9688" rx="3.5" ry="3.5" style="stroke:#181818;stroke-width:0.5;" width="204.3711" x="356.8442" y="103.9688"/><text fill="#000000" font-family="sans-serif" font-size="12" lengthAdjust="spacing" textLength="184.3711" x="366.8442" y="125.1074">Search codebase for keywords</text><rect fill="#F1F1F1" height="33.9688" rx="3.5" ry="3.5" style="stroke:#181818;stroke-width:0.5;" width="159.834" x="379.1128" y="201.9375"/><text fill="#000000" font-family="sans-serif" font-size="12" lengthAdjust="spacing" textLength="139.834" x="389.1128" y="223.0762">Inspect candidate code</text><path d="M10,245.9063 L10,301.3047 A0,0 0 0 0 10,301.3047 L299.0806,301.3047 A0,0 0 0 0 299.0806,301.3047 L299.0806,277.6055 L319.0806,273.6055 L299.0806,269.6055 L299.0806,255.9063 L289.0806,245.9063 L10,245.9063 A0,0 0 0 0 10,245.9063" fill="#90EE90" style="stroke:#454645;stroke-width:1;"/><path d="M289.0806,245.9063 L289.0806,255.9063 L299.0806,255.9063 L289.0806,245.9063" fill="#90EE90" style="stroke:#454645;stroke-width:1;"/><text fill="#454645" font-family="sans-serif" font-size="13" lengthAdjust="spacing" textLength="268.0806" x="16" y="262.9731">Use either a debugger or manual logging</text><text fill="#454645" font-family="sans-serif" font-size="13" lengthAdjust="spacing" textLength="241.5664" x="16" y="278.106">to determine which parts of the code</text><text fill="#454645" font-family="sans-serif" font-size="13" lengthAdjust="spacing" textLength="242.252" x="16" y="293.2388">are called during program execution.</text><rect fill="#F1F1F1" height="33.9688" rx="3.5" ry="3.5" style="stroke:#181818;stroke-width:0.5;" width="279.8984" x="319.0806" y="256.6211"/><text fill="#000000" font-family="sans-serif" font-size="12" lengthAdjust="spacing" textLength="259.8984" x="329.0806" y="277.7598">Trace code execution (Debugger and Logs)</text><rect fill="#F1F1F1" height="33.9688" rx="3.5" ry="3.5" style="stroke:#181818;stroke-width:0.5;" width="161.9492" x="378.0552" y="321.3047"/><text fill="#000000" font-family="sans-serif" font-size="12" lengthAdjust="spacing" textLength="141.9492" x="388.0552" y="342.4434">Inspect new candidates</text><polygon fill="#F1F1F1" points="459.0298,157.9375,471.0298,169.9375,459.0298,181.9375,447.0298,169.9375,459.0298,157.9375" style="stroke:#181818;stroke-width:0.5;"/><polygon fill="#F1F1F1" points="330.8486,375.2734,587.2109,375.2734,599.2109,387.2734,587.2109,399.2734,330.8486,399.2734,318.8486,387.2734,330.8486,375.2734" style="stroke:#181818;stroke-width:0.5;"/><text fill="#000000" font-family="sans-serif" font-size="11" lengthAdjust="spacing" textLength="19.0083" x="463.0298" y="409.4839">yes</text><text fill="#000000" font-family="sans-serif" font-size="11" lengthAdjust="spacing" textLength="256.3623" x="330.8486" y="391.0815">Change Request concept found in candidates?</text><text fill="#000000" font-family="sans-serif" font-size="11" lengthAdjust="spacing" textLength="13.7017" x="599.2109" y="384.6792">no</text><ellipse cx="459.0298" cy="441.9839" fill="none" rx="11" ry="11" style="stroke:#222222;stroke-width:1;"/><ellipse cx="459.0298" cy="441.9839" fill="#222222" rx="6" ry="6" style="stroke:#222222;stroke-width:1;"/><line style="stroke:#454645;stroke-width:1;" x1="459.0298" x2="459.0298" y1="30" y2="50"/><polygon fill="#454645" points="455.0298,40,459.0298,50,463.0298,40,459.0298,44" style="stroke:#454645;stroke-width:1;"/><line style="stroke:#454645;stroke-width:1;" x1="459.0298" x2="459.0298" y1="83.9688" y2="103.9688"/><polygon fill="#454645" points="455.0298,93.9688,459.0298,103.9688,463.0298,93.9688,459.0298,97.9688" style="stroke:#454645;stroke-width:1;"/><line style="stroke:#454645;stroke-width:1;" x1="459.0298" x2="459.0298" y1="235.9063" y2="256.6211"/><polygon fill="#454645" points="455.0298,246.6211,459.0298,256.6211,463.0298,246.6211,459.0298,250.6211" style="stroke:#454645;stroke-width:1;"/><line style="stroke:#454645;stroke-width:1;" x1="459.0298" x2="459.0298" y1="290.5898" y2="321.3047"/><polygon fill="#454645" points="455.0298,311.3047,459.0298,321.3047,463.0298,311.3047,459.0298,315.3047" style="stroke:#454645;stroke-width:1;"/><line style="stroke:#454645;stroke-width:1;" x1="459.0298" x2="459.0298" y1="181.9375" y2="201.9375"/><polygon fill="#454645" points="455.0298,191.9375,459.0298,201.9375,463.0298,191.9375,459.0298,195.9375" style="stroke:#454645;stroke-width:1;"/><line style="stroke:#454645;stroke-width:1;" x1="599.2109" x2="611.2109" y1="387.2734" y2="387.2734"/><polygon fill="#454645" points="607.2109,283.6055,611.2109,273.6055,615.2109,283.6055,611.2109,279.6055" style="stroke:#454645;stroke-width:1;"/><line style="stroke:#454645;stroke-width:1;" x1="611.2109" x2="611.2109" y1="169.9375" y2="387.2734"/><line style="stroke:#454645;stroke-width:1;" x1="611.2109" x2="471.0298" y1="169.9375" y2="169.9375"/><polygon fill="#454645" points="481.0298,165.9375,471.0298,169.9375,481.0298,173.9375,477.0298,169.9375" style="stroke:#454645;stroke-width:1;"/><line style="stroke:#454645;stroke-width:1;" x1="459.0298" x2="459.0298" y1="355.2734" y2="375.2734"/><polygon fill="#454645" points="455.0298,365.2734,459.0298,375.2734,463.0298,365.2734,459.0298,369.2734" style="stroke:#454645;stroke-width:1;"/><line style="stroke:#454645;stroke-width:1;" x1="459.0298" x2="459.0298" y1="137.9375" y2="157.9375"/><polygon fill="#454645" points="455.0298,147.9375,459.0298,157.9375,463.0298,147.9375,459.0298,151.9375" style="stroke:#454645;stroke-width:1;"/><line style="stroke:#454645;stroke-width:1;" x1="459.0298" x2="459.0298" y1="399.2734" y2="430.9839"/><polygon fill="#454645" points="455.0298,420.9839,459.0298,430.9839,463.0298,420.9839,459.0298,424.9839" style="stroke:#454645;stroke-width:1;"/><!--SRC=[JP4zKiGm38Lxdq9qISC1TWiAQ9YXukS0Mll5yP38HdOcvFOecu6biorzUk_9Tst436fvSxMnDdTw3f2MXetyo191Ygy5jP7FSybYjNfsfpUm-j7U0YvSGKDM-iIsPWrMTee2tcT9BV36ieGKkE5A6F-kx8yBuHj-QIaBTK-uB352oThf9SVQdvraeoOCpT672I6POMkWyDjhoZFBmXDDESOaqLaQApVed0IqZicS5ijMAGza-5NN4QkTU9eGA2ng81NDKNc-MRftC2UxXLiMmNhBOs6FhBlC1EeUZwMz_YrDF4gp_ImsACa_yg6dLAcJtEy2r6selVr1BZy0]--></g></svg>