<svg xmlns="http://www.w3.org/2000/svg" xmlns:xlink="http://www.w3.org/1999/xlink" contentStyleType="text/css" data-diagram-type="CLASS" height="343px" preserveAspectRatio="none" style="width:626px;height:343px;background:#FFFFFF;" version="1.1" viewBox="0 0 626 343" width="626px" zoomAndPan="magnify"><defs/><g><!--class OutputFormat--><g class="entity" data-qualified-name="OutputFormat" data-source-line="1" id="ent0002"><rect fill="#F1F1F1" height="113.1875" rx="2.5" ry="2.5" style="stroke:#181818;stroke-width:0.5;" width="134.835" x="226.39" y="7"/><ellipse cx="243.2458" cy="23" fill="#B4A7E5" rx="11" ry="11" style="stroke:#181818;stroke-width:1;"/><path d="M239.1677,18.7656 L239.1677,16.6094 L246.5583,16.6094 L246.5583,18.7656 L244.0896,18.7656 L244.0896,26.8438 L246.5583,26.8438 L246.5583,29 L239.1677,29 L239.1677,26.8438 L241.6364,26.8438 L241.6364,18.7656 L239.1677,18.7656 Z " fill="#000000"/><text fill="#000000" font-family="sans-serif" font-size="14" font-style="italic" lengthAdjust="spacing" textLength="98.7109" x="257.6582" y="27.8467">OutputFormat</text><line style="stroke:#181818;stroke-width:0.5;" x1="227.39" x2="360.225" y1="39" y2="39"/><g data-visibility-modifier="PUBLIC_METHOD"><ellipse cx="237.39" cy="72.9453" fill="#84BE84" rx="3" ry="3" style="stroke:#038048;stroke-width:1;"/></g><text fill="#000000" font-family="sans-serif" font-size="14" lengthAdjust="spacing" textLength="108.835" x="246.39" y="76.292">someMethods()</text><line style="stroke:#181818;stroke-width:1;stroke-dasharray:1,2;" x1="227.39" x2="241.8065" y1="55.1484" y2="55.1484"/><text fill="#000000" font-family="sans-serif" font-size="14" lengthAdjust="spacing" textLength="104.002" x="241.8065" y="59.4951">Other Methods</text><line style="stroke:#181818;stroke-width:1;stroke-dasharray:1,2;" x1="345.8085" x2="360.225" y1="55.1484" y2="55.1484"/><g data-visibility-modifier="PUBLIC_METHOD"><ellipse cx="237.39" cy="109.5391" fill="#84BE84" rx="3" ry="3" style="stroke:#038048;stroke-width:1;"/></g><text fill="#000000" font-family="sans-serif" font-size="14" lengthAdjust="spacing" textLength="46.1221" x="246.39" y="112.8857">write()</text><line style="stroke:#181818;stroke-width:1;stroke-dasharray:1,2;" x1="227.39" x2="242.8866" y1="91.7422" y2="91.7422"/><text fill="#000000" font-family="sans-serif" font-size="14" lengthAdjust="spacing" textLength="101.8418" x="242.8866" y="96.0889">Write Methods</text><line style="stroke:#181818;stroke-width:1;stroke-dasharray:1,2;" x1="344.7284" x2="360.225" y1="91.7422" y2="91.7422"/></g><!--class SVGOutputFormat--><g class="entity" data-qualified-name="SVGOutputFormat" data-source-line="7" id="ent0003"><rect fill="#F1F1F1" height="48" rx="2.5" ry="2.5" style="stroke:#181818;stroke-width:0.5;" width="160.0234" x="11.8" y="180.19"/><ellipse cx="26.8" cy="196.19" fill="#B4A7E5" rx="11" ry="11" style="stroke:#181818;stroke-width:1;"/><path d="M22.7219,191.9556 L22.7219,189.7994 L30.1125,189.7994 L30.1125,191.9556 L27.6438,191.9556 L27.6438,200.0338 L30.1125,200.0338 L30.1125,202.19 L22.7219,202.19 L22.7219,200.0338 L25.1906,200.0338 L25.1906,191.9556 L22.7219,191.9556 Z " fill="#000000"/><text fill="#000000" font-family="sans-serif" font-size="14" font-style="italic" lengthAdjust="spacing" textLength="128.0234" x="40.8" y="201.0367">SVGOutputFormat</text><line style="stroke:#181818;stroke-width:0.5;" x1="12.8" x2="170.8234" y1="212.19" y2="212.19"/><line style="stroke:#181818;stroke-width:0.5;" x1="12.8" x2="170.8234" y1="220.19" y2="220.19"/></g><!--class SVGZOutputFormat--><g class="entity" data-qualified-name="SVGZOutputFormat" data-source-line="8" id="ent0004"><rect fill="#F1F1F1" height="48" rx="2.5" ry="2.5" style="stroke:#181818;stroke-width:0.5;" width="169.6143" x="7" y="288.19"/><ellipse cx="22" cy="304.19" fill="#B4A7E5" rx="11" ry="11" style="stroke:#181818;stroke-width:1;"/><path d="M17.9219,299.9556 L17.9219,297.7994 L25.3125,297.7994 L25.3125,299.9556 L22.8438,299.9556 L22.8438,308.0338 L25.3125,308.0338 L25.3125,310.19 L17.9219,310.19 L17.9219,308.0338 L20.3906,308.0338 L20.3906,299.9556 L17.9219,299.9556 Z " fill="#000000"/><text fill="#000000" font-family="sans-serif" font-size="14" font-style="italic" lengthAdjust="spacing" textLength="137.6143" x="36" y="309.0367">SVGZOutputFormat</text><line style="stroke:#181818;stroke-width:0.5;" x1="8" x2="175.6143" y1="320.19" y2="320.19"/><line style="stroke:#181818;stroke-width:0.5;" x1="8" x2="175.6143" y1="328.19" y2="328.19"/></g><!--class ImageOutputFormat--><g class="entity" data-qualified-name="ImageOutputFormat" data-source-line="9" id="ent0005"><rect fill="#F1F1F1" height="48" rx="2.5" ry="2.5" style="stroke:#181818;stroke-width:0.5;" width="174.5566" x="206.53" y="180.19"/><ellipse cx="221.53" cy="196.19" fill="#B4A7E5" rx="11" ry="11" style="stroke:#181818;stroke-width:1;"/><path d="M217.4519,191.9556 L217.4519,189.7994 L224.8425,189.7994 L224.8425,191.9556 L222.3738,191.9556 L222.3738,200.0338 L224.8425,200.0338 L224.8425,202.19 L217.4519,202.19 L217.4519,200.0338 L219.9206,200.0338 L219.9206,191.9556 L217.4519,191.9556 Z " fill="#000000"/><text fill="#000000" font-family="sans-serif" font-size="14" font-style="italic" lengthAdjust="spacing" textLength="142.5566" x="235.53" y="201.0367">ImageOutputFormat</text><line style="stroke:#181818;stroke-width:0.5;" x1="207.53" x2="380.0866" y1="212.19" y2="212.19"/><line style="stroke:#181818;stroke-width:0.5;" x1="207.53" x2="380.0866" y1="220.19" y2="220.19"/></g><!--class ImageMapOutputFormat--><g class="entity" data-qualified-name="ImageMapOutputFormat" data-source-line="10" id="ent0006"><rect fill="#F1F1F1" height="48" rx="2.5" ry="2.5" style="stroke:#181818;stroke-width:0.5;" width="204.1016" x="415.76" y="180.19"/><ellipse cx="430.76" cy="196.19" fill="#B4A7E5" rx="11" ry="11" style="stroke:#181818;stroke-width:1;"/><path d="M426.6819,191.9556 L426.6819,189.7994 L434.0725,189.7994 L434.0725,191.9556 L431.6038,191.9556 L431.6038,200.0338 L434.0725,200.0338 L434.0725,202.19 L426.6819,202.19 L426.6819,200.0338 L429.1506,200.0338 L429.1506,191.9556 L426.6819,191.9556 Z " fill="#000000"/><text fill="#000000" font-family="sans-serif" font-size="14" font-style="italic" lengthAdjust="spacing" textLength="172.1016" x="444.76" y="201.0367">ImageMapOutputFormat</text><line style="stroke:#181818;stroke-width:0.5;" x1="416.76" x2="618.8616" y1="212.19" y2="212.19"/><line style="stroke:#181818;stroke-width:0.5;" x1="416.76" x2="618.8616" y1="220.19" y2="220.19"/></g><!--reverse link OutputFormat to SVGOutputFormat--><g class="link" data-entity-1="ent0002" data-entity-2="ent0003" data-link-type="extension" data-source-line="12" id="lnk7"><path codeLine="12" d="M211.1377,121.3136 C177.5577,144.3536 153.31,160.99 126.02,179.72" fill="none" id="OutputFormat-backto-SVGOutputFormat" style="stroke:#181818;stroke-width:1;"/><polygon fill="none" points="225.98,111.13,207.7432,116.3662,214.5323,126.2611,225.98,111.13" style="stroke:#181818;stroke-width:1;"/></g><!--reverse link OutputFormat to ImageOutputFormat--><g class="link" data-entity-1="ent0002" data-entity-2="ent0005" data-link-type="extension" data-source-line="13" id="lnk8"><path codeLine="13" d="M293.81,138.57 C293.81,159.3 293.81,163.69 293.81,179.93" fill="none" id="OutputFormat-backto-ImageOutputFormat" style="stroke:#181818;stroke-width:1;"/><polygon fill="none" points="293.81,120.57,287.81,138.57,299.81,138.57,293.81,120.57" style="stroke:#181818;stroke-width:1;"/></g><!--reverse link OutputFormat to ImageMapOutputFormat--><g class="link" data-entity-1="ent0002" data-entity-2="ent0006" data-link-type="extension" data-source-line="14" id="lnk9"><path codeLine="14" d="M376.9273,116.0303 C415.6873,140.0103 447.55,159.72 479.84,179.7" fill="none" id="OutputFormat-backto-ImageMapOutputFormat" style="stroke:#181818;stroke-width:1;"/><polygon fill="none" points="361.62,106.56,373.7705,121.1327,380.0841,110.9279,361.62,106.56" style="stroke:#181818;stroke-width:1;"/></g><!--reverse link SVGOutputFormat to SVGZOutputFormat--><g class="link" data-entity-1="ent0003" data-entity-2="ent0004" data-link-type="extension" data-source-line="15" id="lnk10"><path codeLine="15" d="M91.81,246.45 C91.81,264.13 91.81,270.32 91.81,287.98" fill="none" id="SVGOutputFormat-backto-SVGZOutputFormat" style="stroke:#181818;stroke-width:1;"/><polygon fill="none" points="91.81,228.45,85.81,246.45,97.81,246.45,91.81,228.45" style="stroke:#181818;stroke-width:1;"/></g><!--SRC=[oymhIIrAIqnELV0lBIaeBN7BByfDB56evb800Zqz_vACr285tzIIZFoKOZqziAXsSNvkAbH8GnEgCBmeioGLNM4vI12ef9Oh4svDS9WxiaseCb4uf3np4zDJySdv9XQWI7EX-CQcHbSNms9C5PYsu523RXkQqN3xKBm30000]--></g></svg>